<?xml version="1.0" encoding="utf-8"?>
<!-- Generator: Adobe Illustrator 21.0.2, SVG Export Plug-In . SVG Version: 6.00 Build 0)  -->
<svg version="1.1" id="Layer_1" xmlns="http://www.w3.org/2000/svg" xmlns:xlink="http://www.w3.org/1999/xlink" x="0px" y="0px"
	 viewBox="0 0 2048 2048" style="enable-background:new 0 0 2048 2048;" xml:space="preserve">
<style type="text/css">
	.st0{fill:#231F20;}
	.st1{fill:none;stroke:#231F20;stroke-width:40;stroke-miterlimit:10;}
</style>
<g>
	
		<rect x="503.5" y="1042.4" transform="matrix(0.7071 -0.7071 0.7071 0.7071 -555.5804 911.3422)" class="st0" width="637.6" height="167.8"/>
	
		<rect x="987.6" y="422.8" transform="matrix(0.7071 -0.7071 0.7071 0.7071 -222.4411 979.8323)" class="st0" width="167.8" height="671.3"/>
	
		<rect x="1021.5" y="1113.6" transform="matrix(0.7071 -0.7071 0.7071 0.7071 -473.8654 1251.0597)" class="st0" width="503.5" height="167.8"/>
	
		<rect x="1011.3" y="1089" transform="matrix(0.7071 -0.7071 0.7071 0.7071 -567.9234 1142.5804)" class="st0" width="167.8" height="335.6"/>
</g>
<polygon class="st1" points="1979.5,767.9 1280,68.5 324.5,324.5 68.5,1280 768,1979.5 1723.5,1723.4 "/>
<polygon class="st1" points="1280,1979.5 1979.5,1280 1723.5,324.5 768,68.5 68.5,767.9 324.5,1723.4 "/>
</svg>
