<?xml version="1.0" encoding="utf-8"?>
<!-- Generator: Adobe Illustrator 21.0.2, SVG Export Plug-In . SVG Version: 6.00 Build 0)  -->
<svg version="1.1" id="Layer_1" xmlns="http://www.w3.org/2000/svg" xmlns:xlink="http://www.w3.org/1999/xlink" x="0px" y="0px"
	 viewBox="0 0 1000 1000" style="enable-background:new 0 0 1000 1000;" xml:space="preserve">
<style type="text/css">
	.st0{fill:#333333;}
	.st1{display:none;fill:#333333;}
</style>
<g id="Circle">
	<path class="st0" d="M500,950C251.9,950,50,748.1,50,500C50,251.9,251.9,50,500,50c248.1,0,450,201.9,450,450
		C950,748.1,748.1,950,500,950z M500,78.9C267.8,78.9,78.9,267.8,78.9,500S267.8,921.1,500,921.1S921.1,732.2,921.1,500
		S732.2,78.9,500,78.9z"/>
</g>
<path id="GitHub" class="st1" d="M777.5,478.3c0-47.7-16.9-86.6-44.9-117.2c4.5-11,19.5-55.4-4.3-115.6c0,0-36.6-11.7-120,44.8
	c-34.9-9.7-72.3-14.5-109.4-14.7c-37.1,0.2-74.5,5-109.3,14.7c-83.4-56.5-120.1-44.8-120.1-44.8c-23.7,60.2-8.8,104.6-4.2,115.6
	c-27.9,30.6-45,69.5-45,117.2c0,167.3,102,204.8,199,215.8c-12.5,10.9-23.8,30.2-27.7,58.4c-24.9,11.2-88.1,30.5-127.1-36.3
	c0,0-23.1-41.9-66.9-45c0,0-42.6-0.6-3,26.5c0,0,28.6,13.4,48.5,63.9c0,0,25.6,77.9,147.1,51.5c0.2,36.5,0.6,99,0.6,109.5h216.5
	c0-14.4,0.5-89.6,0.5-148c0-40.7-14-67.3-29.6-80.9C675.3,683,777.5,646,777.5,478.3z M227.6,691.4c-1,2.2-4.4,2.8-7.5,1.3
	c-3.2-1.4-4.9-4.4-3.9-6.6c0.9-2.2,4.4-2.9,7.5-1.4C226.9,686.3,228.7,689.2,227.6,691.4z M245.3,711.2c-2.1,1.9-6.2,1-8.9-2
	c-2.9-3-3.4-7.1-1.3-9.1c2.1-1.9,6.1-1,9,2C246.9,705.2,247.5,709.2,245.3,711.2z M262.5,736.3c-2.7,1.9-7.1,0.1-9.8-3.8
	c-2.7-3.9-2.7-8.5,0.1-10.4c2.7-1.9,7-0.2,9.8,3.7C265.2,729.7,265.2,734.4,262.5,736.3z M286.1,760.6c-2.4,2.6-7.5,1.9-11.2-1.7
	c-3.8-3.5-4.9-8.5-2.5-11.2c2.4-2.6,7.6-1.9,11.3,1.7C287.5,753,288.6,758,286.1,760.6z M318.6,774.7c-1.1,3.4-6,5-10.9,3.5
	c-4.9-1.5-8.2-5.5-7.2-9c1-3.4,6-5.1,10.9-3.5C316.4,767.2,319.6,771.2,318.6,774.7z M345.1,784c-5.2,0.1-9.4-2.8-9.5-6.3
	c0-3.6,4.1-6.6,9.3-6.7c5.2-0.1,9.4,2.8,9.4,6.4C354.5,780.9,350.3,783.9,345.1,784z M379.5,779.7c-5.1,0.9-9.8-1.2-10.4-4.7
	c-0.6-3.6,3-7.2,8.1-8.1c5.2-0.9,9.8,1.2,10.4,4.8C388.2,775.2,384.6,778.8,379.5,779.7z"/>
<path id="Twitter" class="st0" d="M388.3,747.6c228.9,0,354.2-189.8,354.2-354.2c0-5.3,0-10.7-0.2-16c24.3-17.5,45.4-39.6,62.1-64.6
	c-22.3,10-46.4,16.5-71.6,19.7c25.7-15.3,45.4-39.8,54.9-68.9c-24,14.3-50.7,24.5-79.1,30.1c-22.8-24.3-55.1-39.3-90.8-39.3
	c-68.7,0-124.5,55.8-124.5,124.5c0,9.7,1.2,19.2,3.2,28.4c-103.4-5.1-195.2-54.9-256.6-130.1C229,295.6,223,317,223,339.8
	c0,43.2,22.1,81.3,55.3,103.7c-20.4-0.7-39.6-6.3-56.3-15.5c0,0.5,0,1,0,1.7c0,60.2,43,110.7,99.8,122.1
	c-10.4,2.9-21.4,4.4-32.8,4.4c-8,0-15.8-0.7-23.3-2.2c15.8,49.5,61.9,85.4,116.3,86.4c-42.7,33.5-96.4,53.4-154.6,53.4
	c-10,0-19.9-0.5-29.6-1.7C252.6,727,318.1,747.6,388.3,747.6"/>
</svg>
