<?xml version="1.0" encoding="utf-8"?>
<!-- Generator: Adobe Illustrator 21.0.0, SVG Export Plug-In . SVG Version: 6.00 Build 0)  -->
<svg version="1.1" id="Layer_1" xmlns="http://www.w3.org/2000/svg" xmlns:xlink="http://www.w3.org/1999/xlink" x="0px" y="0px"
	 viewBox="0 0 1607.2 1966.2" style="enable-background:new 0 0 1607.2 1966.2;" xml:space="preserve">
<style type="text/css">
	.st0{fill:#00AAFF;}
	.st1{fill:#FFFFFF;}
</style>
<polygon class="st0" points="0,0 0,1502.2 803.6,1966.2 1607.2,1502.2 1607.2,0 "/>
<g>
	<polygon class="st1" points="694.4,1125.1 817.4,1002.2 954,1138.8 1227.3,865.5 1350.2,988.5 954,1384.7 	"/>
	<path class="st1" d="M1227.3,879.2l109.3,109.3L1077,1248.1l-123,123L708,1125.1l109.3-109.3l123,123l13.7,13.7l13.7-13.7
		L1227.3,879.2 M1227.3,851.9L954,1125.1L817.4,988.5l-136.6,136.6L954,1398.4l136.6-136.6l273.3-273.3L1227.3,851.9L1227.3,851.9z"
		/>
</g>
<g>
	
		<rect x="213.9" y="956.2" transform="matrix(0.7071 -0.7071 0.7071 0.7071 -570.26 709.5701)" class="st1" width="715" height="173.9"/>
	<path class="st1" d="M762.7,742.6L872,851.9l-491.9,491.9l-109.3-109.3L762.7,742.6 M762.7,715.2l-519.2,519.2l136.6,136.6
		l519.2-519.2L762.7,715.2L762.7,715.2z"/>
</g>
<g>
	
		<rect x="771.4" y="242.8" transform="matrix(0.7071 -0.7071 0.7071 0.7071 -186.7083 788.4154)" class="st1" width="173.9" height="753.6"/>
	<path class="st1" d="M653.4,305.3l519.2,519.2l-109.3,109.3L544.1,414.6L653.4,305.3 M653.4,278L516.8,414.6l546.6,546.6
		l136.6-136.6L653.4,278L653.4,278z"/>
</g>
</svg>
