<?xml version="1.0" encoding="utf-8"?>
<!-- Generator: Adobe Illustrator 21.0.2, SVG Export Plug-In . SVG Version: 6.00 Build 0)  -->
<svg version="1.1" id="Layer_1" xmlns="http://www.w3.org/2000/svg" xmlns:xlink="http://www.w3.org/1999/xlink" x="0px" y="0px"
	 viewBox="0 0 2048 2048" style="enable-background:new 0 0 2048 2048;" xml:space="preserve">
<style type="text/css">
	.st0{fill:#231F20;}
	.st1{fill:none;stroke:#231F20;stroke-width:40;stroke-miterlimit:10;}
</style>
<g>
	
		<rect x="319.9" y="1075.6" transform="matrix(0.7071 -0.7071 0.7071 0.7071 -620.8159 879.4147)" class="st0" width="862.5" height="227"/>
	
		<rect x="974.8" y="237.4" transform="matrix(0.7071 -0.7071 0.7071 0.7071 -170.1754 972.062)" class="st0" width="227" height="908"/>
	
		<rect x="1020.6" y="1171.9" transform="matrix(0.7071 -0.7071 0.7071 0.7071 -510.2794 1338.9536)" class="st0" width="681" height="227"/>
	
		<rect x="1006.9" y="1138.6" transform="matrix(0.7071 -0.7071 0.7071 0.7071 -637.5125 1192.2129)" class="st0" width="227" height="454"/>
	<polygon class="st1" points="1979.5,767.9 1280,68.5 324.5,324.5 68.5,1280 768,1979.5 1723.5,1723.4 	"/>
	<polygon class="st1" points="1280,1979.5 1979.5,1280 1723.5,324.5 768,68.5 68.5,767.9 324.5,1723.4 	"/>
</g>
</svg>
