<?xml version="1.0" encoding="utf-8"?>
<!-- Generator: Adobe Illustrator 21.0.2, SVG Export Plug-In . SVG Version: 6.00 Build 0)  -->
<svg version="1.1" id="Layer_1" xmlns="http://www.w3.org/2000/svg" xmlns:xlink="http://www.w3.org/1999/xlink" x="0px" y="0px"
	 viewBox="0 0 2048 2048" style="enable-background:new 0 0 2048 2048;" xml:space="preserve">
<style type="text/css">
	.st0{fill:#231F20;}
	.st1{fill:none;stroke:#231F20;stroke-width:40;stroke-miterlimit:10;}
</style>
<rect x="294.1" y="1083.6" transform="matrix(0.7071 -0.7071 0.7071 0.7071 -632.4034 875.4537)" class="st0" width="892.9" height="235"/>
<rect x="972.1" y="216" transform="matrix(0.7071 -0.7071 0.7071 0.7071 -165.9692 971.3337)" class="st0" width="235" height="940"/>
<rect x="1019.5" y="1183.3" transform="matrix(0.7071 -0.7071 0.7071 0.7071 -517.9529 1351.1843)" class="st0" width="705" height="235"/>
<rect x="1005.3" y="1148.9" transform="matrix(0.7071 -0.7071 0.7071 0.7071 -649.7241 1199.2513)" class="st0" width="235" height="470"/>
<polygon class="st1" points="2012.1,765.1 1288,41.1 298.9,306.1 33.9,1295.2 758,2019.3 1747.1,1754.2 "/>
<polygon class="st1" points="1288,2019.3 2012.1,1295.2 1747.1,306.1 758,41.1 33.9,765.1 298.9,1754.2 "/>
</svg>
