<?xml version="1.0" encoding="utf-8"?>
<!-- Generator: Adobe Illustrator 21.0.2, SVG Export Plug-In . SVG Version: 6.00 Build 0)  -->
<svg version="1.1" id="Layer_1" xmlns="http://www.w3.org/2000/svg" xmlns:xlink="http://www.w3.org/1999/xlink" x="0px" y="0px"
	 viewBox="0 0 1100 1100" style="enable-background:new 0 0 1100 1100;" xml:space="preserve">
<style type="text/css">
	.st0{fill:#FFFFFF;}
</style>
<g>
	<path class="st0" d="M200,440c29.4,0,57,11.4,77.8,32.2S310,520.6,310,550s-11.4,57-32.2,77.8S229.4,660,200,660
		s-57-11.4-77.8-32.2S90,579.4,90,550s11.4-57,32.2-77.8S170.6,440,200,440 M200,400c-82.8,0-150,67.2-150,150s67.2,150,150,150
		s150-67.2,150-150S282.8,400,200,400L200,400z"/>
</g>
<g>
	<path class="st0" d="M550,440c29.4,0,57,11.4,77.8,32.2S660,520.6,660,550s-11.4,57-32.2,77.8S579.4,660,550,660
		s-57-11.4-77.8-32.2S440,579.4,440,550s11.4-57,32.2-77.8S520.6,440,550,440 M550,400c-82.8,0-150,67.2-150,150s67.2,150,150,150
		s150-67.2,150-150S632.8,400,550,400L550,400z"/>
</g>
<g>
	<path class="st0" d="M900,440c29.4,0,57,11.4,77.8,32.2s32.2,48.4,32.2,77.8s-11.4,57-32.2,77.8S929.4,660,900,660
		s-57-11.4-77.8-32.2S790,579.4,790,550s11.4-57,32.2-77.8S870.6,440,900,440 M900,400c-82.8,0-150,67.2-150,150s67.2,150,150,150
		s150-67.2,150-150S982.8,400,900,400L900,400z"/>
</g>
<g>
	<path class="st0" d="M900,440c29.4,0,57,11.4,77.8,32.2s32.2,48.4,32.2,77.8s-11.4,57-32.2,77.8S929.4,660,900,660
		s-57-11.4-77.8-32.2S790,579.4,790,550s11.4-57,32.2-77.8S870.6,440,900,440 M900,400c-82.8,0-150,67.2-150,150s67.2,150,150,150
		s150-67.2,150-150S982.8,400,900,400L900,400z"/>
</g>
</svg>
