<?xml version="1.0" encoding="utf-8"?>
<!-- Generator: Adobe Illustrator 21.0.0, SVG Export Plug-In . SVG Version: 6.00 Build 0)  -->
<svg version="1.1" id="Layer_1" xmlns="http://www.w3.org/2000/svg" xmlns:xlink="http://www.w3.org/1999/xlink" x="0px" y="0px"
	 viewBox="0 0 2048 2048" style="enable-background:new 0 0 2048 2048;" xml:space="preserve">
<style type="text/css">
	.st0{fill:#FFFFFF;}
</style>
<g>
	<polygon class="st0" points="828.9,1536.1 1048.5,1316.6 1292.4,1560.5 1780.2,1072.7 1999.7,1292.2 1292.4,1999.5 	"/>
	<path class="st0" d="M1780.2,1097.1l195.1,195.1l-463.4,463.4l-219.5,219.5l-439-439l195.1-195.1l219.5,219.5l24.4,24.4l24.4-24.4
		L1780.2,1097.1 M1780.2,1048.3l-487.8,487.8l-243.9-243.9l-243.9,243.9l487.8,487.8l243.9-243.9l487.8-487.8L1780.2,1048.3
		L1780.2,1048.3z"/>
</g>
<g>
	<polygon class="st0" points="48.5,1731.2 950.9,828.8 1170.4,1048.3 268,1950.8 	"/>
	<path class="st0" d="M950.9,853.2l195.1,195.1L268,1926.4L72.9,1731.2L950.9,853.2 M950.9,804.4L24.1,1731.2L268,1975.1
		l926.8-926.8L950.9,804.4L950.9,804.4z"/>
</g>
<g>
	
		<rect x="966.4" y="-38.9" transform="matrix(0.7071 -0.7071 0.7071 0.7071 -119.566 978.713)" class="st0" width="310.5" height="1345.2"/>
	<path class="st0" d="M755.8,72.7l926.8,926.8l-195.1,195.1L560.7,267.8L755.8,72.7 M755.8,23.9L511.9,267.8l975.6,975.6
		l243.9-243.9L755.8,23.9L755.8,23.9z"/>
</g>
</svg>
