<?xml version="1.0" encoding="utf-8"?>
<!-- Generator: Adobe Illustrator 21.0.0, SVG Export Plug-In . SVG Version: 6.00 Build 0)  -->
<svg version="1.1" id="Layer_1" xmlns="http://www.w3.org/2000/svg" xmlns:xlink="http://www.w3.org/1999/xlink" x="0px" y="0px"
	 viewBox="0 0 1000 255" style="enable-background:new 0 0 1000 255;" xml:space="preserve">
<style type="text/css">
	.st0{fill:#FFFFFF;}
</style>
<g>
	<g>
		<rect x="772" y="113.6" class="st0" width="105.1" height="27.9"/>
		<polygon class="st0" points="492.6,214.6 417.2,171.1 417.2,40.4 445.1,40.4 445.1,155 492.6,182.4 540.1,155 540.1,40.4 
			568,40.4 568,171.1 		"/>
		<polygon class="st0" points="567.9,214.6 540,214.6 540,84 615.4,40.4 683.9,79.9 669.9,104.1 615.4,72.6 567.9,100.1 		"/>
		<path class="st0" d="M369.6,214.6L294.2,171v-57.5h123V100l-47.5-27.4l-54.5,31.5l-13.9-24.2l68.5-39.5L445.1,84v87.1L369.6,214.6
			z M322.1,155l47.5,27.4l47.5-27.4v-13.5H322V155H322.1z"/>
		<path class="st0" d="M724.4,214.6L649,171.1v-57.5h123v-13.5l-47.5-27.4L670,104.2l-14-24.3l68.5-39.5L799.9,84v87.1L724.4,214.6z
			 M676.9,155l47.5,27.4L772,155v-13.5h-95.1V155z"/>
		<polygon class="st0" points="924.6,214.6 856.1,175.1 870.1,150.9 924.6,182.4 972.1,155 972.1,141.5 849.1,141.5 849.1,84 
			924.6,40.4 993,79.9 979.1,104.1 924.6,72.6 877,100.1 877,113.6 1000,113.6 1000,171.1 		"/>
	</g>
	<g>
		<path class="st0" d="M127.5,245.9l34.2,9.2l25-25l34.2-9.2l9.2-34.2l25-25l-9.2-34.2l9.2-34.2l-25-25l-9.2-34.2L186.7,25l-25-25
			l-34.2,9.2L93.3,0l-25,25l-34.2,9.2L25,68.3l-25,25l9.2,34.2L0,161.7l25,25l9.2,34.2l34.2,9.2l25,25L127.5,245.9z M40.6,177.7
			l-13.4-50.2l13.4-50.2l36.7-36.7l50.2-13.4l50.2,13.4l36.7,36.7l13.4,50.2l-13.4,50.2l-36.7,36.7l-50.2,13.4l-50.2-13.4
			L40.6,177.7z"/>
		<path class="st0" d="M127.5,214.6L52.1,171v-57.5h123V100l-47.5-27.4L73,104.1L59.1,79.9l68.5-39.5L203,84v87.1L127.5,214.6z
			 M80,155l47.5,27.4L175,155v-13.5H80V155z"/>
	</g>
</g>
</svg>
