<?xml version="1.0" encoding="utf-8"?>
<!-- Generator: Adobe Illustrator 21.0.0, SVG Export Plug-In . SVG Version: 6.00 Build 0)  -->
<svg version="1.1" id="Layer_1" xmlns="http://www.w3.org/2000/svg" xmlns:xlink="http://www.w3.org/1999/xlink" x="0px" y="0px"
	 viewBox="0 0 255.1 255" style="enable-background:new 0 0 255.1 255;" xml:space="preserve">
<style type="text/css">
	.st0{fill:#FFFFFF;}
</style>
<g>
	<path class="st0" d="M127.5,245.9l34.2,9.2l25-25l34.2-9.2l9.2-34.2l25-25l-9.2-34.2l9.2-34.2l-25-25l-9.2-34.2L186.7,25l-25-25
		l-34.2,9.2L93.3,0l-25,25l-34.2,9.2L25,68.3l-25,25l9.2,34.2L0,161.7l25,25l9.2,34.2l34.2,9.2l25,25L127.5,245.9z M40.6,177.7
		l-13.4-50.2l13.4-50.2l36.7-36.7l50.2-13.4l50.2,13.4l36.7,36.7l13.4,50.2l-13.4,50.2l-36.7,36.7l-50.2,13.4l-50.2-13.4L40.6,177.7
		z"/>
	<path class="st0" d="M127.5,214.6L52.1,171v-57.5h123V100l-47.5-27.4L73,104.1L59.1,79.9l68.5-39.5L203,84v87.1L127.5,214.6z
		 M80,155l47.5,27.4L175,155v-13.5H80V155z"/>
</g>
</svg>
